<svg xmlns="http://www.w3.org/2000/svg" width="20" height="20" fill="black" viewBox="0 0 384 512">
<path d="M318.7 268.7c-.2-36.7 16.4-64.4 50-84.8-18.8-26.9-47.2-41.7-84.9-44.3-35.7-2.5-74.3 20.9-88.4 20.9-15 0-49.4-19.9-76.4-19.9C65.4 140.6 0 184.2 0 283.4c0 27.9 5.1 56.7 15.3 86.3 13.6 39.5 62.7 135.8 113.6 134 26.6-.7 45.6-18.9 79.9-18.9 32.6 0 50.2 18.9 79.3 18.9 51.4-.7 96.4-89.4 109.8-128.9-69.6-26.1-79.2-128.3-79.2-126.1zM255.5 92.2c27.3-32.4 24.8-61.9 24-72.2-24.2 1.4-52.2 16.4-68.4 35.4-17.4 20-27.6 45-25.4 71.3 26.8 2 47.7-10.8 69.8-34.5z"></path>
</svg>
