<svg xmlns="http://www.w3.org/2000/svg" width="20" height="20" viewBox="0 0 48 48">
<path fill="#FFC107" d="M43.611,20.083H42V20H24v8h11.303C34.677,32.599,29.907,36,24,36c-6.627,0-12-5.373-12-12
    s5.373-12,12-12c3.059,0,5.842,1.154,7.961,3.039l5.657-5.657C33.754,6.053,29.112,4,24,4C12.955,4,4,12.955,4,24
    s8.955,20,20,20s20-8.955,20-20C44,22.659,43.862,21.35,43.611,20.083z"></path>
<path fill="#FF3D00" d="M6.306,14.691l6.571,4.819C14.655,15.108,18.961,12,24,12c3.059,0,5.842,1.154,7.961,3.039l5.657-5.657
    C33.754,6.053,29.112,4,24,4C14.608,4,6.824,9.678,6.306,14.691z"></path>
<path fill="#4CAF50" d="M24,44c5.764,0,10.925-2.226,14.83-5.858l-6.857-6.268C29.769,33.398,27.062,34,24,34c-5.889,0-10.666-3.386-12.703-8.24
    l-6.523,5.021C6.601,37.445,14.6,44,24,44z"></path>
<path fill="#1976D2" d="M43.611,20.083H42V20H24v8h11.303c-1.354,3.599-4.58,6.217-8.473,6.217c-2.934,0-5.586-1.127-7.514-2.957l-6.523,5.021
    C15.875,40.703,19.709,42,24,42c6.627,0,12-5.373,12-12C36,22.659,35.862,21.35,43.611,20.083z"></path>
</svg>
